# xmcd
#
# Track frame offsets:
#	183
#	14048
#	28013
#	50425
#	78265
#	101238
#	119405
#	142268
#	166038
#	181730
#	196250
#	224878
#
# Disc length: 3283 seconds
#
# Revision: 1
# Processed by: cddbd v1.5.2PL0 Copyright (c) Steve Scherf et al.
# Submitted via: audiograbber 1.80
#
DISCID=ae0cd10c
DTITLE=Wille and The Poor Boys - Live
DYEAR=1900
DGENRE=
TTITLE0=High School Confidential
TTITLE1=Tear It Up
TTITLE2=Baby Please Don't Go
TTITLE3=Medley: Ooh Poo Pah Doo - Rockin' Pneumonia...
TTITLE4=Mystery Train
TTITLE5=Chicken Shack Boogie
TTITLE6=Stagger Lee
TTITLE7=What'd I Say
TTITLE8=Red Hot
TTITLE9=Lovin' Up A Storm
TTITLE10=Medley: Hound Dog - Shake Rattle and Roll - Lookin' For Someone
TTITLE11=Land Of 1000 Dances 
EXTD=
EXTT0=
EXTT1=
EXTT2=
EXTT3=
EXTT4=
EXTT5=
EXTT6=
EXTT7=
EXTT8=
EXTT9=
EXTT10=
EXTT11=
PLAYORDER=
